<svg width="570" height="665" viewBox="0 0 570 665" fill="none" xmlns="http://www.w3.org/2000/svg">
<path d="M142.768 517.693C221.321 561.373 348.68 561.374 427.233 517.695C505.786 474.013 505.786 403.195 427.233 359.515C348.68 315.835 221.32 315.835 142.767 359.514C64.2139 403.194 64.2139 474.013 142.768 517.693Z" fill="#F5F5F5"/>
<path d="M408.441 481.149C418.672 486.837 435.257 486.837 445.487 481.149C455.717 475.462 455.717 466.238 445.487 460.55C435.257 454.863 418.672 454.863 408.441 460.55C398.212 466.238 398.212 475.46 408.441 481.149Z" fill="#EBEBEB"/>
<path d="M136.748 472.939L146.009 466.701C146.009 466.701 153.649 460.149 157.433 447.987C160.295 438.783 159.901 431.781 157.848 428.272C155.323 423.953 148.789 424.708 148.529 433.813C148.019 451.74 143.535 464.143 136.748 472.939Z" fill="#F44336"/>
<path opacity="0.2" d="M136.748 472.939L146.009 466.701C146.009 466.701 153.649 460.149 157.433 447.987C160.295 438.783 159.901 431.781 157.848 428.272C155.323 423.953 148.789 424.708 148.529 433.813C148.019 451.74 143.535 464.143 136.748 472.939Z" fill="black"/>
<path d="M136.749 473.604C136.567 473.604 136.391 473.504 136.279 473.316C136.1 473.014 136.164 472.601 136.423 472.392C157.851 455.093 153.7 430.992 153.656 430.75C153.59 430.391 153.786 430.037 154.093 429.96C154.403 429.88 154.704 430.11 154.77 430.469C154.817 430.719 159.146 455.663 137.071 473.485C136.973 473.566 136.86 473.604 136.749 473.604Z" fill="white"/>
<path d="M118.225 485.415C118.225 485.415 115.001 482.352 115.781 478.207C116.562 474.06 118.641 471.079 115.066 465.73C111.491 460.38 110.567 453.253 114.772 449.388C118.022 446.4 123.094 450.636 124.926 442.717C126.262 436.945 125.806 424.165 132.118 419.913C138.429 415.662 142.348 422.062 141.379 430.731C140.513 438.486 139.292 445.953 140.234 447.987C142.075 451.961 145.239 451.427 145.096 458.713C144.961 465.497 139.464 471.111 139.464 471.111L118.225 485.415Z" fill="#F44336"/>
<path d="M128.818 478.944C128.533 478.944 128.288 478.696 128.252 478.358C126.621 462.599 130.508 435.39 133.724 427.302C133.857 426.969 134.193 426.821 134.481 426.979C134.767 427.134 134.891 427.529 134.758 427.861C131.599 435.809 127.824 463.135 129.384 478.2C129.422 478.563 129.199 478.895 128.886 478.94C128.863 478.942 128.841 478.944 128.818 478.944Z" fill="white"/>
<path d="M128.509 466.676C128.425 466.676 128.34 466.653 128.259 466.608C124.303 464.352 121.797 456.338 121.692 455.997C121.586 455.651 121.74 455.271 122.035 455.146C122.331 455.022 122.657 455.2 122.764 455.548C122.788 455.626 125.22 463.392 128.76 465.412C129.042 465.573 129.16 465.972 129.021 466.302C128.923 466.539 128.721 466.676 128.509 466.676Z" fill="white"/>
<path d="M128.445 471.986C128.219 471.986 128.005 471.828 127.916 471.568C127.8 471.227 127.941 470.84 128.233 470.704C134.889 467.592 139.039 458.338 139.08 458.245C139.225 457.919 139.568 457.789 139.847 457.959C140.128 458.127 140.237 458.528 140.092 458.855C139.917 459.253 135.703 468.644 128.656 471.939C128.587 471.97 128.516 471.986 128.445 471.986Z" fill="white"/>
<path d="M361.154 400.44C361.154 400.44 356.169 391.035 355.688 380.794C355.207 370.554 357.133 366.303 359.776 365.082C362.418 363.863 362.619 367.62 363.984 369.848C365.349 372.075 368.11 370.8 369.131 363.875C370.151 356.951 373.894 345.215 381.635 342.975C390.187 340.504 385.6 352.205 383.454 356.771C381.306 361.337 379.632 367.555 381.049 369.248C382.464 370.941 384.659 367.813 386.764 370.714C389.305 374.214 381.406 386.8 376.873 389.854L361.154 400.44Z" fill="#F44336"/>
<path d="M367.983 396.48C367.972 396.48 367.962 396.48 367.953 396.478C367.638 396.458 367.398 396.146 367.414 395.78C368.669 368.546 380.061 349.685 380.176 349.497C380.36 349.197 380.716 349.13 380.971 349.344C381.227 349.557 381.285 349.974 381.102 350.271C380.989 350.456 369.787 369.022 368.55 395.851C368.536 396.204 368.285 396.48 367.983 396.48Z" fill="white"/>
<path d="M368.634 388.629C368.54 388.629 368.446 388.602 368.358 388.545C365.165 386.483 363.397 380.368 363.324 380.107C363.224 379.759 363.386 379.383 363.685 379.267C363.983 379.147 364.307 379.341 364.405 379.688C364.423 379.747 366.108 385.572 368.91 387.38C369.184 387.558 369.285 387.962 369.132 388.284C369.029 388.505 368.834 388.629 368.634 388.629Z" fill="white"/>
<path d="M369.192 384.597C368.937 384.597 368.704 384.398 368.64 384.096C368.563 383.738 368.748 383.378 369.052 383.289C377.281 380.861 380.131 375.83 380.158 375.78C380.328 375.471 380.681 375.382 380.944 375.577C381.209 375.774 381.289 376.184 381.119 376.492C380.998 376.717 378.036 382.009 369.331 384.576C369.286 384.591 369.239 384.597 369.192 384.597Z" fill="white"/>
<path d="M237.145 379.762C237.145 379.762 226.214 376.652 225.645 352.772C225.03 326.995 228.324 296.924 215.43 294.478C202.538 292.032 195.304 310.475 195.469 331.908C195.614 350.726 202.11 391.557 237.144 399.56L237.145 379.762Z" fill="#F44336"/>
<path opacity="0.2" d="M237.145 379.762C237.145 379.762 226.214 376.652 225.645 352.772C225.03 326.995 228.324 296.924 215.43 294.478C202.538 292.032 195.304 310.475 195.469 331.908C195.614 350.726 202.11 391.557 237.144 399.56L237.145 379.762Z" fill="black"/>
<path d="M237.144 397.105C237.11 397.105 237.076 397.101 237.041 397.094C229.158 395.418 222.742 390.359 217.97 382.056C203.807 357.406 208.269 311.393 209.734 303.356C209.8 302.995 210.101 302.769 210.41 302.844C210.718 302.921 210.914 303.273 210.849 303.632C209.4 311.58 204.974 357.052 218.917 381.316C223.51 389.31 229.676 394.177 237.244 395.785C237.554 395.852 237.76 396.199 237.703 396.559C237.655 396.88 237.414 397.105 237.144 397.105Z" fill="white"/>
<path d="M237.145 458.411C225.842 460.199 207.483 460.167 196.909 450.436C186.334 440.706 188.533 432.319 192.602 428.821C196.669 425.322 200.202 421.324 193.205 413.561C186.206 405.798 174.958 393.322 171.322 374.606C167.684 355.892 169.475 344.196 176.633 340.295C183.579 336.511 185.408 342.523 189.66 354.92C193.911 367.318 203.479 356.689 211.659 360.559C219.839 364.428 219.518 372.09 220.034 378.676C220.55 385.261 223.251 387.082 227.883 387.082C232.514 387.082 237.143 390.201 237.144 396.438L237.145 458.411Z" fill="#F44336"/>
<path d="M237.145 436.683C237.095 436.683 237.042 436.675 236.991 436.659C236.502 436.499 224.812 432.529 207.8 414.296C189.677 394.873 181.12 365.753 181.035 365.461C180.935 365.113 181.095 364.735 181.393 364.618C181.692 364.504 182.015 364.689 182.115 365.034C182.198 365.324 190.668 394.13 208.571 413.316C225.356 431.304 237.181 435.338 237.299 435.377C237.602 435.477 237.778 435.842 237.693 436.197C237.623 436.491 237.395 436.683 237.145 436.683Z" fill="white"/>
<path d="M212.535 418.939C212.307 418.939 212.091 418.778 212.003 418.516C208.345 407.548 207.516 384.101 207.483 383.109C207.471 382.743 207.716 382.434 208.031 382.418C208.322 382.422 208.61 382.689 208.622 383.056C208.63 383.297 209.477 407.273 213.066 418.032C213.18 418.375 213.035 418.761 212.741 418.894C212.673 418.925 212.603 418.939 212.535 418.939Z" fill="white"/>
<path d="M212.439 434.714C210.667 434.714 209.442 434.552 209.294 434.531C208.981 434.488 208.758 434.157 208.794 433.791C208.832 433.428 209.112 433.157 209.428 433.21C209.534 433.222 220.141 434.621 225.012 428.825C225.231 428.561 225.593 428.561 225.818 428.815C226.043 429.071 226.046 429.494 225.826 429.755C222.261 433.999 216.153 434.714 212.439 434.714Z" fill="white"/>
<path d="M204.229 182.867L203.004 174.574L196.661 179.444C196.026 178.026 195.21 176.887 194.25 176.028L197.285 166.451L191.635 164.977L187.46 174.258C186.077 174.507 184.617 175.051 183.112 175.91L181.305 168.915L174.538 175.122L174.982 183.368C173.612 185.147 172.359 187.091 171.24 189.137L165.649 188.815L161.728 199.066L166.53 201.455C166.023 203.66 165.697 205.848 165.581 207.952L159.486 214.492L160.71 222.784L167.052 217.915C167.687 219.333 168.503 220.471 169.464 221.331L166.428 230.908L172.079 232.382L178.051 225.589C179.435 225.342 179.097 222.31 180.602 221.45L182.408 228.445L189.176 222.238L189.002 218.994C190.371 217.217 195.543 213.293 196.661 211.248L198.066 208.545L201.986 198.294L200.16 194.434L198.133 189.408L204.229 182.867ZM183.558 210.199C178.367 214.96 176.785 215.999 175.846 209.637C174.907 203.276 177.944 193.575 183.136 188.813C188.328 184.051 190.321 183.696 191.259 190.057C192.197 196.418 188.75 205.436 183.558 210.199Z" fill="#E0E0E0"/>
<path d="M191.636 164.977L199.028 169.95L194.854 179.231L187.46 174.257L191.636 164.977Z" fill="#F5F5F5"/>
<path d="M210.398 179.549L204.056 184.418L196.662 179.444L203.005 174.574L210.398 179.549Z" fill="#F5F5F5"/>
<path d="M209.379 203.268L204.578 200.878L197.186 195.904L201.986 198.294L209.379 203.268Z" fill="#E0E0E0"/>
<path d="M166.428 230.908L173.822 235.882L176.857 226.305L169.464 221.331L166.428 230.908Z" fill="#E0E0E0"/>
<path d="M189.803 233.419L182.409 228.445L180.603 221.45L187.996 226.425L189.803 233.419Z" fill="#E0E0E0"/>
<path d="M211.622 187.841L210.397 179.549L204.055 184.418C203.42 183 202.603 181.862 201.643 181.002L204.679 171.425L199.028 169.951L194.853 179.232C193.47 179.481 192.009 180.025 190.504 180.884L188.697 173.89L181.93 180.097L182.374 188.343C181.005 190.12 179.751 192.065 178.632 194.111L173.041 193.789L169.12 204.041L173.922 206.429C173.414 208.634 173.09 210.822 172.973 212.928L166.878 219.467L168.102 227.76L174.444 222.891C175.079 224.307 175.895 225.447 176.855 226.306L173.82 235.884L179.471 237.357L183.646 228.076C185.029 227.829 186.489 227.284 187.994 226.425L189.801 233.419L196.568 227.212L196.124 218.966C197.495 217.189 198.748 215.243 199.866 213.198L205.458 213.52L209.377 203.268L204.575 200.879C205.083 198.674 205.409 196.486 205.523 194.382L211.622 187.841ZM190.951 215.173C185.76 219.935 180.789 218.637 179.85 212.276C178.91 205.915 182.359 196.896 187.55 192.135C192.742 187.372 197.711 188.669 198.651 195.03C199.59 201.393 196.143 210.41 190.951 215.173Z" fill="#EBEBEB"/>
<path d="M188.698 173.888L181.305 168.914L174.538 175.121L181.931 180.095L188.698 173.888Z" fill="#F5F5F5"/>
<path d="M174.538 175.121L174.982 183.367L182.374 188.34L181.931 180.095L174.538 175.121Z" fill="#E0E0E0"/>
<path d="M178.633 194.11L171.239 189.135L165.649 188.813L173.042 193.788L178.633 194.11Z" fill="#F5F5F5"/>
<path d="M165.649 188.813L161.728 199.065L169.121 204.039L173.042 193.788L165.649 188.813Z" fill="#E0E0E0"/>
<path d="M172.974 212.926L165.581 207.952L159.486 214.492L166.879 219.466L172.974 212.926Z" fill="#F5F5F5"/>
<path d="M168.103 227.758L160.71 222.784L159.486 214.492L166.879 219.466L168.103 227.758Z" fill="#E0E0E0"/>
<path d="M199.028 169.95L191.636 164.977L197.286 166.451L204.679 171.425L199.028 169.95Z" fill="#F5F5F5"/>
<path d="M171.106 145.256V132.87L162.657 137.313C162.148 135.026 161.373 133.065 160.375 131.447L165.698 118.925L159.196 114.545L152.563 126.185C150.863 125.987 149.02 126.182 147.067 126.813L146.14 116.054L136.947 122.247L136.02 134.253C134.067 136.255 132.224 138.542 130.524 141.029L123.891 138.327L117.389 151.463L122.712 156.814C121.715 159.774 120.939 162.781 120.43 165.755L111.981 172.694V185.079L120.43 180.635C120.939 182.923 121.715 184.883 122.712 186.502L117.389 199.024L123.891 203.402L130.524 191.763C132.224 191.962 134.067 191.765 136.02 191.136L136.947 201.894L146.14 195.702L147.067 183.696C149.806 182.629 152.738 180.155 154.437 177.668L159.195 179.623L165.697 166.487L161.708 162.477C162.704 159.516 162.81 154.783 162.655 152.196L171.106 145.256ZM141.545 176.178C134.491 180.929 130.107 177.559 130.107 168.057C130.107 158.556 135.936 146.916 142.989 142.165C150.042 137.414 154.315 140.87 154.315 150.371C154.316 159.874 148.598 171.428 141.545 176.178Z" fill="#E0E0E0"/>
<path d="M166.59 119.52L159.196 114.546L152.564 126.186L159.957 131.159L166.59 119.52Z" fill="#F5F5F5"/>
<path d="M178.499 137.844L171.106 132.87L162.657 137.313L170.05 142.287L178.499 137.844Z" fill="#F5F5F5"/>
<path d="M144.341 206.868L136.948 201.894L136.021 191.136L143.415 196.11L144.341 206.868Z" fill="#E0E0E0"/>
<path d="M117.391 199.024L124.784 203.998L130.107 191.476L122.714 186.502L117.391 199.024Z" fill="#E0E0E0"/>
<path d="M178.499 150.23V137.844L170.05 142.287C169.541 140 168.764 138.039 167.768 136.421L173.091 123.899L166.589 119.519L159.956 131.159C158.257 130.961 156.414 131.157 154.461 131.787L153.534 121.03L144.341 127.222L143.414 139.228C141.461 141.23 139.618 143.518 137.918 146.005L131.285 143.302L124.783 156.44L130.106 161.791C129.109 164.751 128.333 167.757 127.824 170.731L119.375 177.669V190.054L127.824 185.611C128.333 187.898 129.109 189.859 130.106 191.477L124.783 203.999L131.285 208.378L137.918 196.739C139.618 196.936 141.461 196.74 143.414 196.111L144.341 206.87L153.534 200.677L154.461 188.671C156.414 186.671 158.257 184.382 159.956 181.896L166.589 184.599L173.091 171.462L167.768 166.112C168.764 163.151 169.541 160.145 170.05 157.171L178.499 150.23ZM148.937 181.153C141.884 185.903 136.166 182.052 136.166 172.55C136.166 163.049 141.884 151.494 148.937 146.743C155.991 141.992 161.709 145.844 161.709 155.345C161.709 164.848 155.991 176.402 148.937 181.153Z" fill="#EBEBEB"/>
<path d="M130.526 141.029L137.919 146.003L131.286 143.301L123.893 138.327L130.526 141.029Z" fill="#F0F0F0"/>
<path d="M123.881 138.328L117.386 151.467L124.778 156.441L131.274 143.302L123.881 138.328Z" fill="#F5F5F5"/>
<path d="M117.391 151.463L124.784 156.437L130.107 161.789L122.714 156.814L117.391 151.463Z" fill="#E0E0E0"/>
<path d="M120.433 165.755L127.826 170.729L119.377 177.668L111.983 172.694L120.433 165.755Z" fill="#F5F5F5"/>
<path d="M111.983 172.694L119.377 177.668V190.052L111.983 185.079V172.694Z" fill="#E0E0E0"/>
<path d="M153.535 121.029L146.141 116.054L136.948 122.247L144.341 127.221L153.535 121.029Z" fill="#F5F5F5"/>
<path d="M248.381 476.209L355.569 404.01C356.659 403.275 356.66 402.084 355.571 401.347L345.655 394.655C344.565 393.918 342.797 393.917 341.706 394.652L234.489 466.851C233.398 467.587 233.398 468.777 234.489 469.511L244.432 476.209C245.523 476.942 247.291 476.942 248.381 476.209Z" fill="#E0E0E0"/>
<path d="M352.606 125.281L255.972 190.371C253.246 192.208 251.036 196.674 251.036 200.346V467.769C251.036 471.442 253.246 472.931 255.972 471.094L352.608 406.005C355.334 404.168 357.544 399.702 357.544 396.03L357.543 128.607C357.543 124.934 355.332 123.444 352.606 125.281Z" fill="#455A64"/>
<path d="M255.972 190.371L352.607 125.281C355.045 123.639 357.064 124.661 357.466 127.52C357.096 124.093 355.07 120.291 352.607 118.631L348.588 115.923C345.861 114.086 341.44 114.086 338.715 115.923L242.081 181.013C240.718 181.931 239.484 183.507 238.591 185.312L252.483 194.668C253.375 192.865 254.61 191.29 255.972 190.371Z" fill="#37474F"/>
<path d="M237.145 458.411C237.145 462.085 239.354 466.551 242.081 468.386L246.101 471.094C248.566 472.754 252.404 472.897 255.134 471.557C252.809 472.586 251.036 471.057 251.036 467.769V200.346C251.036 198.509 251.589 196.474 252.483 194.669L238.591 185.313C237.697 187.118 237.145 189.153 237.145 190.989V458.411Z" fill="#263238"/>
<path d="M258.629 226.012L349.95 164.501C351.587 163.398 352.913 164.292 352.913 166.496L352.914 364.38C352.914 366.584 351.587 369.264 349.951 370.365L258.631 431.878C256.995 432.979 255.669 432.085 255.669 429.883L255.668 231.999C255.667 229.793 256.994 227.113 258.629 226.012Z" fill="white"/>
<path d="M304.29 167.971C303.331 168.617 302.554 170.188 302.554 171.48C302.554 172.772 303.332 173.295 304.29 172.649C305.25 172.004 306.026 170.433 306.026 169.14C306.026 167.849 305.25 167.325 304.29 167.971Z" fill="#37474F"/>
<path d="M304.292 410.622C300.505 413.172 297.435 419.376 297.435 424.477C297.435 429.578 300.504 431.646 304.292 429.095C308.078 426.546 311.148 420.343 311.148 415.241C311.147 410.14 308.078 408.072 304.292 410.622Z" fill="#37474F"/>
<path d="M287.888 188.555C285.97 189.848 284.415 192.99 284.415 195.574C284.415 198.158 285.97 199.205 287.889 197.913C289.807 196.622 291.361 193.48 291.361 190.896C291.361 188.311 289.806 187.264 287.888 188.555Z" fill="#37474F"/>
<path d="M296.38 187.679C296.38 189.401 297.485 190.054 298.848 189.135L321.697 173.746C323.059 172.828 324.165 170.687 324.165 168.965C324.164 167.242 323.059 166.589 321.696 167.508L298.848 182.898C297.485 183.817 296.38 185.957 296.38 187.679Z" fill="#37474F"/>
<path d="M244.83 234.575C246.364 235.608 247.608 238.122 247.608 240.19C247.608 242.257 246.364 243.095 244.83 242.061C243.295 241.028 242.051 238.514 242.051 236.447C242.051 234.381 243.295 233.541 244.83 234.575Z" fill="#37474F"/>
<path d="M244.83 259.547C246.364 260.58 247.608 263.094 247.608 265.162C247.608 267.23 246.364 268.067 244.83 267.033C243.295 266 242.051 263.486 242.051 261.418C242.052 259.351 243.295 258.515 244.83 259.547Z" fill="#37474F"/>
<path d="M243.971 235.076C245.506 236.11 246.751 238.623 246.751 240.69C246.751 242.757 245.507 243.596 243.971 242.561C242.437 241.528 241.193 239.014 241.193 236.947C241.193 234.879 242.438 234.041 243.971 235.076Z" fill="#455A64"/>
<path d="M243.971 260.048C245.506 261.082 246.751 263.595 246.751 265.664C246.751 267.73 245.507 268.568 243.971 267.535C242.437 266.501 241.193 263.988 241.193 261.92C241.193 259.851 242.438 259.015 243.971 260.048Z" fill="#455A64"/>
<path d="M371.436 172.752C371.436 170.549 370.11 169.656 368.473 170.757L357.543 178.12L277.152 232.27C275.516 233.372 274.191 236.051 274.191 238.255L274.192 436.139C274.192 438.343 275.518 439.235 277.154 438.134L357.573 383.964L368.474 376.621C370.11 375.519 371.437 372.839 371.437 370.636L371.436 172.752Z" fill="white" stroke="#F44336" stroke-miterlimit="10"/>
<path d="M275.83 439.271C275.45 439.271 275.093 439.165 274.774 438.951C274.031 438.449 273.622 437.45 273.622 436.138L273.621 238.254C273.621 235.801 275.047 232.919 276.867 231.693L357.258 177.543L357.828 178.695L277.437 232.844C275.986 233.822 274.761 236.298 274.761 238.254L274.762 436.138C274.762 436.944 274.974 437.549 275.344 437.799C275.715 438.049 276.27 437.958 276.868 437.557L357.287 383.387L357.857 384.538L277.438 438.706C276.882 439.084 276.335 439.271 275.83 439.271Z" fill="#F44336" stroke="#F44336" stroke-miterlimit="10"/>
<path d="M357.857 384.539L357.287 383.388L368.189 376.047C369.64 375.068 370.867 372.59 370.867 370.638L370.866 172.754C370.866 171.948 370.654 171.343 370.283 171.093C369.915 170.844 369.359 170.93 368.758 171.335L357.828 178.697L357.258 177.546L368.188 170.183C369.162 169.527 370.109 169.439 370.853 169.941C371.596 170.442 372.006 171.44 372.006 172.754L372.007 370.638C372.007 373.089 370.581 375.971 368.759 377.199L357.857 384.539Z" fill="#F44336" stroke="#F44336" stroke-miterlimit="10"/>
<path d="M322.814 218.737C333.044 211.846 341.336 217.432 341.336 231.214C341.336 244.995 333.044 261.752 322.814 268.644C312.583 275.535 304.291 269.949 304.291 256.167C304.291 242.386 312.583 225.628 322.814 218.737Z" fill="#F44336"/>
<path d="M322.814 229.583C326.132 227.348 328.823 229.16 328.823 233.63C328.823 238.102 326.132 243.539 322.814 245.773C319.495 248.009 316.804 246.196 316.804 241.725C316.804 237.255 319.495 231.819 322.814 229.583Z" fill="#F44336"/>
<path d="M334.526 253.424C334.526 246.078 330.105 243.1 324.654 246.774L321.245 249.069C315.794 252.741 311.373 261.674 311.373 269.019V270.995C314.525 272.216 318.492 271.555 322.814 268.643C327.258 265.649 331.335 260.79 334.526 255.126V253.424Z" fill="#F44336"/>
<path opacity="0.7" d="M322.814 229.583C326.132 227.348 328.823 229.16 328.823 233.63C328.823 238.102 326.132 243.539 322.814 245.773C319.495 248.009 316.804 246.196 316.804 241.725C316.804 237.255 319.495 231.819 322.814 229.583Z" fill="white"/>
<path opacity="0.7" d="M334.526 253.423C334.526 246.078 330.105 243.1 324.654 246.773L321.245 249.069C315.794 252.741 311.373 261.673 311.373 269.019V270.995C314.525 272.216 318.492 271.555 322.814 268.643C327.258 265.649 331.335 260.79 334.526 255.126V253.423Z" fill="white"/>
<path d="M286.973 299.036L310.808 282.981C311.899 282.247 312.784 282.843 312.784 284.311V285.229C312.784 286.699 311.901 288.485 310.808 289.219L286.973 305.274C285.883 306.009 284.999 305.413 284.999 303.944V303.026C284.999 301.556 285.883 299.77 286.973 299.036Z" fill="#F44336"/>
<path opacity="0.1" d="M286.973 299.036L310.808 282.981C311.899 282.247 312.784 282.843 312.784 284.311V285.229C312.784 286.699 311.901 288.485 310.808 289.219L286.973 305.274C285.883 306.009 284.999 305.413 284.999 303.944V303.026C284.999 301.556 285.883 299.77 286.973 299.036Z" fill="black"/>
<path d="M285.987 318.415L358.104 269.84C358.649 269.473 359.091 269.769 359.091 270.505V280.321C359.091 281.056 358.649 281.949 358.104 282.316L285.987 330.892C285.442 331.259 285 330.961 285 330.227V320.41C285 319.676 285.442 318.782 285.987 318.415Z" fill="#F44336"/>
<path opacity="0.2" d="M285.987 318.415L358.104 269.84C358.649 269.473 359.091 269.769 359.091 270.505V280.321C359.091 281.056 358.649 281.949 358.104 282.316L285.987 330.892C285.442 331.259 285 330.961 285 330.227V320.41C285 319.676 285.442 318.782 285.987 318.415Z" fill="white"/>
<path d="M286.973 342.704L310.808 326.649C311.899 325.915 312.784 326.51 312.784 327.979V328.897C312.784 330.365 311.901 332.153 310.808 332.887L286.973 348.941C285.883 349.677 284.999 349.08 284.999 347.611V346.694C284.999 345.224 285.883 343.439 286.973 342.704Z" fill="#F44336"/>
<path opacity="0.1" d="M286.973 342.704L310.808 326.649C311.899 325.915 312.784 326.51 312.784 327.979V328.897C312.784 330.365 311.901 332.153 310.808 332.887L286.973 348.941C285.883 349.677 284.999 349.08 284.999 347.611V346.694C284.999 345.224 285.883 343.439 286.973 342.704Z" fill="black"/>
<path d="M285.987 362.083L358.104 313.508C358.649 313.141 359.091 313.438 359.091 314.173V323.989C359.091 324.724 358.649 325.617 358.104 325.984L285.987 374.56C285.442 374.927 285 374.63 285 373.895V364.078C285 363.344 285.442 362.452 285.987 362.083Z" fill="#F44336"/>
<path opacity="0.2" d="M285.987 362.083L358.104 313.508C358.649 313.141 359.091 313.438 359.091 314.173V323.989C359.091 324.724 358.649 325.617 358.104 325.984L285.987 374.56C285.442 374.927 285 374.63 285 373.895V364.078C285 363.344 285.442 362.452 285.987 362.083Z" fill="white"/>
<path d="M314.759 367.657L343.224 348.484C344.315 347.748 345.199 348.344 345.199 349.814V360.09C345.199 361.558 344.315 363.345 343.224 364.08L314.759 383.254C313.668 383.988 312.784 383.392 312.784 381.924V371.647C312.784 370.178 313.668 368.391 314.759 367.657Z" fill="#F44336"/>
<path opacity="0.1" d="M314.759 367.657L343.224 348.484C344.315 347.748 345.199 348.344 345.199 349.814V360.09C345.199 361.558 344.315 363.345 343.224 364.08L314.759 383.254C313.668 383.988 312.784 383.392 312.784 381.924V371.647C312.784 370.178 313.668 368.391 314.759 367.657Z" fill="black"/>
<path d="M382.245 324.327C382.245 324.327 368.241 301.788 367.387 299.106C366.743 297.085 367.431 294.078 367.591 292.68C367.751 291.283 367.983 288.171 368.181 287.305C368.53 285.794 366.851 286.104 365.909 287.478C364.945 288.885 364.636 291.633 364.156 292.084C363.677 292.535 359.934 286.193 357.982 283.258C356.03 280.321 354.809 278.554 353.622 279.642C352.767 280.425 353.405 282.136 354.819 284.635C356.234 287.134 356.862 288.292 357.075 288.828C357.29 289.365 356.125 289.408 355.496 290.536C355.006 291.416 355.463 292.841 354.814 293.52C354.164 294.2 353.557 295.422 354.27 296.8C355.177 298.554 356.998 301.063 359.091 302.755C361.185 304.448 362.033 305.042 363.268 307.346C364.504 309.648 375.662 333.152 376.411 334.562C377.159 335.973 378.615 338.845 380.815 338.927C383.017 339.01 401.025 320.92 401.953 320.017C404.92 317.129 405.857 316.705 406.369 319.306C406.53 320.12 406.635 321.047 406.746 322.097C407.103 325.39 409.025 337.175 409.025 337.175C409.025 337.175 418.134 342.325 425.633 339.787C433.133 337.249 435.648 333.593 435.648 333.593L431.896 326.46C432.917 323.515 437.635 311.607 439.115 303.261L415.631 298.838C415.149 298.715 414.38 298.489 413.397 298.187C412.108 297.791 408.866 296.464 406.367 298.999C398.288 307.202 382.245 324.327 382.245 324.327Z" fill="#FFA8A7"/>
<path d="M428.804 462.563L424.594 469.389C424.594 469.389 426.545 470.723 430.709 470.908C434.477 471.075 435.512 469.632 435.651 469.285C436.287 467.695 435.294 464.823 435.022 462.355L428.804 462.563Z" fill="#37474F"/>
<path d="M424.83 466.112C424.83 466.112 419.729 465.733 416.201 465.214C412.673 464.694 409.882 466.704 410.712 468.399C411.542 470.092 413.483 471.502 416.505 472.689C419.095 473.706 422.199 474.444 424.903 475.389C427.674 476.357 429.448 477.463 431.018 476.834C432.768 476.131 433.519 475.314 433.371 473.827C433.223 472.34 431.954 467.552 431.954 467.552L424.83 466.112Z" fill="#37474F"/>
<path d="M435.65 455.706C435.65 455.706 435.011 461.905 434.962 463.236C434.913 464.566 429.776 464.993 428.803 462.563L428.643 454.984L435.65 455.706Z" fill="#F28F8F"/>
<path d="M430.47 459.52L432.307 468.925C432.307 468.925 432.481 470.071 428.281 470.801C424.082 471.533 417.498 468.238 416.377 467.569C415.256 466.899 415.122 465.568 419.246 465.834C423.37 466.101 424.83 466.11 424.83 466.11L423.492 461.941L430.47 459.52Z" fill="#FFA8A7"/>
<path d="M439.117 303.263L442.019 302.328C442.019 302.328 448.101 324.759 448.773 326.921C449.446 329.081 450.204 331.385 448.897 334.059C447.338 337.241 439.118 350.049 439.118 350.049L433.9 344.091L439.819 331.437L434.583 319.06L439.117 303.263Z" fill="#F28F8F"/>
<path d="M409.229 274.104C409.229 274.104 406.901 269.757 409.352 264.435C412.241 258.164 418.7 255.103 426.387 256.278C429.939 256.82 434.13 260.221 436.43 265.415C438.956 271.118 439.192 282.614 439.819 286.961L409.229 274.104Z" fill="#37474F"/>
<path d="M409.054 276.559C409.054 276.559 407.227 280.615 407.544 280.985C407.86 281.354 409.079 281.653 409.079 281.653L409.054 276.559Z" fill="#FFA8A7"/>
<path d="M414.596 263.732C412.611 265.243 409.192 268.004 409.041 277.12C408.887 286.478 410.02 289.494 411.206 290.58C412.006 291.311 416.688 290.94 418.698 290.39C420.709 289.839 426.49 286.507 428.57 281.44C431.017 275.48 430.522 266.753 426.881 264.219C421.757 260.653 416.277 262.454 414.596 263.732Z" fill="#FFA8A7"/>
<path d="M435.649 333.596C439.165 339.979 442.507 345.601 443.22 352.773C444.724 367.922 439.785 385.24 438.737 396.441C438.737 396.441 442.054 401.472 442.051 407.384C442.049 412.013 435.65 455.705 435.65 455.705C435.65 455.705 430.995 457.359 428.643 454.982L424.245 374.605L426.562 364.82L435.649 333.596Z" fill="#F44336"/>
<path opacity="0.2" d="M435.649 333.596C439.165 339.979 442.507 345.601 443.22 352.773C444.724 367.922 439.785 385.24 438.737 396.441C438.737 396.441 442.054 401.472 442.051 407.384C442.049 412.013 435.65 455.705 435.65 455.705C435.65 455.705 430.995 457.359 428.643 454.982L424.245 374.605L426.562 364.82L435.649 333.596Z" fill="black"/>
<path d="M424.245 374.606L426.562 364.822C426.562 364.822 432.985 363.012 439.117 359.012C439.117 359.012 436.74 364.048 429.933 366.809L426.387 379.388L426.082 408.174L424.245 374.606Z" fill="#F44336"/>
<path opacity="0.3" d="M424.245 374.606L426.562 364.822C426.562 364.822 432.985 363.012 439.117 359.012C439.117 359.012 436.74 364.048 429.933 366.809L426.387 379.388L426.082 408.174L424.245 374.606Z" fill="black"/>
<path d="M435.649 333.596C437.53 337.178 442.026 343.302 441.07 349.188C439.911 356.319 436.623 361.332 426.562 364.822L417.126 404.69C417.126 404.69 422.039 410.054 423.542 415.157C425.042 420.259 430.47 459.52 430.47 459.52C430.47 459.52 428.792 462.716 423.492 461.942C423.492 461.942 405.012 412.7 403.707 409.53C402.402 406.359 401.556 403.989 402.143 398.824C402.731 393.661 409.026 337.176 409.026 337.176L435.649 333.596Z" fill="#F44336"/>
<path opacity="0.2" d="M435.649 333.596C437.53 337.178 442.026 343.302 441.07 349.188C439.911 356.319 436.623 361.332 426.562 364.822L417.126 404.69C417.126 404.69 422.039 410.054 423.542 415.157C425.042 420.259 430.47 459.52 430.47 459.52C430.47 459.52 428.792 462.716 423.492 461.942C423.492 461.942 405.012 412.7 403.707 409.53C402.402 406.359 401.556 403.989 402.143 398.824C402.731 393.661 409.026 337.176 409.026 337.176L435.649 333.596Z" fill="black"/>
<path d="M439.117 303.263L415.633 298.839C415.152 298.717 414.375 298.489 413.395 298.187L413.393 298.186C413.393 298.186 412.392 315.363 406.369 319.306C406.512 320.126 406.634 321.047 406.746 322.097C407.103 325.39 409.025 337.175 409.025 337.175C409.025 337.175 418.134 342.325 425.633 339.787C433.133 337.249 435.648 333.593 435.648 333.593L431.896 326.46C432.92 323.517 437.637 311.608 439.117 303.263Z" fill="#F44336"/>
<path opacity="0.7" d="M439.117 303.263L415.633 298.839C415.152 298.717 414.375 298.489 413.395 298.187L413.393 298.186C413.393 298.186 412.392 315.363 406.369 319.306C406.512 320.126 406.634 321.047 406.746 322.097C407.103 325.39 409.025 337.175 409.025 337.175C409.025 337.175 418.134 342.325 425.633 339.787C433.133 337.249 435.648 333.593 435.648 333.593L431.896 326.46C432.92 323.517 437.637 311.608 439.117 303.263Z" fill="white"/>
<path d="M432.922 323.657C432.826 323.915 425.373 328.574 423.158 329.287C426.65 329.085 429.55 328.127 431.897 326.462L432.922 323.657Z" fill="#F44336"/>
<path d="M414.01 264.193C414.01 264.193 412.916 272.842 415.566 277.914C415.566 277.914 416.562 274.472 419.068 275.129C421.592 275.791 421.698 279.615 419.946 281.783C418.193 283.951 416.242 283.168 416.242 283.168C416.242 283.168 415.848 289.419 415.637 294.66C415.433 299.71 414.226 311.322 419.28 315.992C424.336 320.662 437.006 322.238 442.945 312.553C446.248 307.165 441.859 297.641 439.819 286.961C437.941 277.141 436.885 262.59 427.955 260.254C419.024 257.92 414.01 264.193 414.01 264.193Z" fill="#37474F"/>
<path d="M446.77 146.067L444.887 147.336C445.038 146.527 445.144 145.725 445.144 144.953C445.144 140.504 442.466 138.7 439.163 140.925C438.202 141.572 437.309 142.508 436.504 143.592C436.504 143.581 436.505 143.57 436.505 143.559C436.505 137.57 432.901 135.141 428.455 138.136C424.009 141.132 420.404 148.415 420.404 154.405C420.404 154.71 420.42 155 420.438 155.285C419.497 155.09 418.374 155.359 417.167 156.173C413.865 158.398 411.187 163.807 411.187 168.257C411.187 168.87 411.243 169.426 411.338 169.934L410.335 170.61C407.608 172.446 405.399 176.03 405.399 178.614C405.399 181.197 407.609 181.803 410.335 179.968L446.77 155.426C449.496 153.59 451.706 150.007 451.706 147.423C451.706 144.837 449.496 144.231 446.77 146.067Z" fill="#EBEBEB"/>
</svg>
