<?xml version="1.0" encoding="UTF-8"?>
<svg id="Layer_1" xmlns="http://www.w3.org/2000/svg" viewBox="0 0 183.57 154">
  <defs>
    <style>
      .cls-1 {
        fill: #fff;
      }

      .cls-2 {
        fill: #fffefc;
      }

      .cls-3 {
        fill: #ff383c;
      }
    </style>
  </defs>
  <path class="cls-3" d="M180.74,112h-6.48l-12.68-40h-26v-7h11.17c1.57,0,2.83-1.27,2.83-2.83v-20.33c0-1.57-1.27-2.83-2.83-2.83h-40.33c-1.57,0-2.83,1.27-2.83,2.83v20.33c0,1.57,1.27,2.83,2.83,2.83h10.17v7h-27l-13.98,40h-6.29c-1.57,0-2.83,1.27-2.83,2.83v36.33c0,1.57,1.27,2.83,2.83,2.83h111.43c1.57,0,2.83-1.27,2.83-2.83v-36.33c0-1.57-1.27-2.83-2.83-2.83ZM123.57,72v-7h5v7h-5Z"/>
  <rect class="cls-2" x="72.52" y="117.99" width="105" height="30"/>
  <rect class="cls-3" x="81.57" y="122.94" width="87" height="20.12"/>
  <rect class="cls-1" x="113.07" y="129.5" width="24" height="7"/>
  <polygon class="cls-1" points="167.57 112 82.57 112 93.57 78 156.57 78 167.57 112"/>
  <rect class="cls-3" x="117.57" y="85" width="13" height="7"/>
  <polygon class="cls-3" points="153.57 92 136.57 92 136.57 85 151.3 85 153.57 92"/>
  <polygon class="cls-3" points="157.57 104 136.57 104 136.57 97 154.77 97 157.57 104"/>
  <rect class="cls-3" x="117.57" y="97" width="13" height="7"/>
  <rect class="cls-1" x="109.57" y="46" width="34" height="13"/>
  <path class="cls-3" d="M93.57,61.17v-20.39c0-1.53,1.24-2.77,2.77-2.77h14.03c1.1,0,1.96-.93,1.88-2.02l-.23-3.31c-.07-.94-.85-1.67-1.79-1.67h-15.73C93.48,13.73,79.33,0,62.07,0S30.66,13.73,29.64,31H13.59c-1.52,0-2.8,1.16-2.94,2.68L.02,148.17c-.24,2.59,1.8,4.83,4.4,4.83h54.89c-1.57,0-2.83-1.27-2.83-2.83v-36.39c0-1.53,1.24-2.77,2.77-2.77h6.33s.01,0,.02-.01l13.97-39.99h10.06c2.18,0,3.94-1.77,3.94-3.94v-5.89ZM39.66,31c1-11.75,10.66-21,22.41-21s21.41,9.25,22.41,21h-44.82Z"/>
  <circle class="cls-1" cx="40.57" cy="50" r="5"/>
  <circle class="cls-1" cx="81.57" cy="50" r="5"/>
  <polygon class="cls-1" points="56.54 149.01 7.8 148.47 18.58 41.25 23.56 41.75 13.34 143.52 56.6 143.99 56.54 149.01"/>
</svg>